# xmcd CD database file
#
# Track frame offsets:
#	183
#	27040
#	41858
#	61208
#	82605
#	98178
#	116635
#	131778
#	149883
#	165630
#
# Disc length: 2430 seconds
#
# Revision: 0
# Processed by: cddbd v1.5.2PL0 Copyright (c) Steve Scherf et al.
# Submitted via: CDex 1.70beta2
#
DISCID=87097c0a
DTITLE=Clarence K Pinckney - Yokohama Mama
DYEAR=1991
DGENRE=Jazz
TTITLE0=Yokohama Mama
TTITLE1=Rainbow Eyes
TTITLE2=Mr Mom Song
TTITLE3=Yakusa Blues
TTITLE4=Sam's Jam
TTITLE5=Shibuya Nights
TTITLE6=She Can Handle It
TTITLE7=Stewart Avenue Caffe Rock
TTITLE8=Candee Girl
TTITLE9=Exceptional Love
EXTD=YEAR: 1991
EXTT0=
EXTT1=
EXTT2=
EXTT3=
EXTT4=
EXTT5=
EXTT6=
EXTT7=
EXTT8=
EXTT9=
PLAYORDER=
